<?xml version="1.0" encoding="UTF-8" standalone="no"?>
<!DOCTYPE svg PUBLIC "-//W3C//DTD SVG 1.1//EN"
 "http://www.w3.org/Graphics/SVG/1.1/DTD/svg11.dtd">
<!-- Generated by graphviz version 2.40.1 (20161225.0304)
 -->
<!-- Title: dependencies Pages: 1 -->
<svg width="673pt" height="211pt"
 viewBox="0.00 0.00 673.00 211.00" xmlns="http://www.w3.org/2000/svg" xmlns:xlink="http://www.w3.org/1999/xlink">
<g id="graph0" class="graph" transform="scale(1 1) rotate(0) translate(4 207)">
<title>dependencies</title>
<polygon fill="#ffffff" stroke="transparent" points="-4,4 -4,-207 669,-207 669,4 -4,4"/>
<text text-anchor="start" x="311.5091" y="-42.4" font-family="sans-serif" font-weight="bold" font-size="14.00" fill="#000000">Legend</text>
<polygon fill="#ffffb3" stroke="transparent" points="98.5,-10 98.5,-30 118.5,-30 118.5,-10 98.5,-10"/>
<text text-anchor="start" x="122.129" y="-15.4" font-family="sans-serif" font-size="14.00" fill="#000000"> &#160;Declarations</text>
<polygon fill="#8dd3c7" stroke="transparent" points="211.5,-10 211.5,-30 231.5,-30 231.5,-10 211.5,-10"/>
<text text-anchor="start" x="235.2251" y="-15.4" font-family="sans-serif" font-size="14.00" fill="#000000"> &#160;Module</text>
<polygon fill="#80b1d3" stroke="transparent" points="297.5,-10 297.5,-30 317.5,-30 317.5,-10 297.5,-10"/>
<text text-anchor="start" x="321.2812" y="-15.4" font-family="sans-serif" font-size="14.00" fill="#000000"> &#160;Bootstrap</text>
<polygon fill="#fdb462" stroke="transparent" points="394.5,-10 394.5,-30 414.5,-30 414.5,-10 394.5,-10"/>
<text text-anchor="start" x="418.1732" y="-15.4" font-family="sans-serif" font-size="14.00" fill="#000000"> &#160;Providers</text>
<polygon fill="#fb8072" stroke="transparent" points="490.5,-10 490.5,-30 510.5,-30 510.5,-10 490.5,-10"/>
<text text-anchor="start" x="514.2258" y="-15.4" font-family="sans-serif" font-size="14.00" fill="#000000"> &#160;Exports</text>
<g id="clust1" class="cluster">
<title>cluster_AppSettingsModule</title>
<polygon fill="none" stroke="#000000" stroke-dasharray="1,5" points="8,-70 8,-195 657,-195 657,-70 8,-70"/>
</g>
<g id="clust2" class="cluster">
<title>cluster_AppSettingsModule_declarations</title>
<polygon fill="none" stroke="#000000" points="330,-78 330,-130 649,-130 649,-78 330,-78"/>
</g>
<g id="clust5" class="cluster">
<title>cluster_AppSettingsModule_imports</title>
<polygon fill="none" stroke="#000000" points="16,-78 16,-130 322,-130 322,-78 16,-78"/>
</g>
<!-- AppSettingsComponent -->
<g id="node1" class="node">
<title>AppSettingsComponent</title>
<polygon fill="#ffffb3" stroke="#000000" points="641.0533,-122 490.9467,-122 490.9467,-86 641.0533,-86 641.0533,-122"/>
<text text-anchor="middle" x="566" y="-99.8" font-family="Times,serif" font-size="14.00" fill="#000000">AppSettingsComponent</text>
</g>
<!-- AppSettingsModule -->
<g id="node3" class="node">
<title>AppSettingsModule</title>
<polygon fill="#8dd3c7" stroke="#000000" points="380.2702,-187 377.2702,-191 356.2702,-191 353.2702,-187 251.7298,-187 251.7298,-151 380.2702,-151 380.2702,-187"/>
<text text-anchor="middle" x="316" y="-164.8" font-family="Times,serif" font-size="14.00" fill="#000000">AppSettingsModule</text>
</g>
<!-- AppSettingsComponent&#45;&gt;AppSettingsModule -->
<g id="edge1" class="edge">
<title>AppSettingsComponent&#45;&gt;AppSettingsModule</title>
<path fill="none" stroke="#000000" d="M566,-122.1061C566,-141.3391 566,-169 566,-169 566,-169 390.3812,-169 390.3812,-169"/>
<polygon fill="#000000" stroke="#000000" points="390.3812,-165.5001 380.3812,-169 390.3812,-172.5001 390.3812,-165.5001"/>
</g>
<!-- AppStoreComponent -->
<g id="node2" class="node">
<title>AppStoreComponent</title>
<polygon fill="#ffffb3" stroke="#000000" points="472.4874,-122 337.5126,-122 337.5126,-86 472.4874,-86 472.4874,-122"/>
<text text-anchor="middle" x="405" y="-99.8" font-family="Times,serif" font-size="14.00" fill="#000000">AppStoreComponent</text>
</g>
<!-- AppStoreComponent&#45;&gt;AppSettingsModule -->
<g id="edge2" class="edge">
<title>AppStoreComponent&#45;&gt;AppSettingsModule</title>
<path fill="none" stroke="#000000" d="M358.9457,-122.1061C358.9457,-122.1061 358.9457,-140.991 358.9457,-140.991"/>
<polygon fill="#000000" stroke="#000000" points="355.4457,-140.9909 358.9457,-150.991 362.4457,-140.991 355.4457,-140.9909"/>
</g>
<!-- AppSettingsRoutingModule -->
<g id="node4" class="node">
<title>AppSettingsRoutingModule</title>
<polygon fill="#8dd3c7" stroke="#000000" points="313.8878,-122 310.8878,-126 289.8878,-126 286.8878,-122 140.1122,-122 140.1122,-86 313.8878,-86 313.8878,-122"/>
<text text-anchor="middle" x="227" y="-99.8" font-family="Times,serif" font-size="14.00" fill="#000000">AppSettingsRoutingModule</text>
</g>
<!-- AppSettingsRoutingModule&#45;&gt;AppSettingsModule -->
<g id="edge3" class="edge">
<title>AppSettingsRoutingModule&#45;&gt;AppSettingsModule</title>
<path fill="none" stroke="#000000" d="M282.7795,-122.1061C282.7795,-122.1061 282.7795,-140.991 282.7795,-140.991"/>
<polygon fill="#000000" stroke="#000000" points="279.2795,-140.9909 282.7795,-150.991 286.2795,-140.991 279.2795,-140.9909"/>
</g>
<!-- SharedModule -->
<g id="node5" class="node">
<title>SharedModule</title>
<polygon fill="#8dd3c7" stroke="#000000" points="122.4231,-122 119.4231,-126 98.4231,-126 95.4231,-122 23.5769,-122 23.5769,-86 122.4231,-86 122.4231,-122"/>
<text text-anchor="middle" x="73" y="-99.8" font-family="Times,serif" font-size="14.00" fill="#000000">SharedModule</text>
</g>
<!-- SharedModule&#45;&gt;AppSettingsModule -->
<g id="edge4" class="edge">
<title>SharedModule&#45;&gt;AppSettingsModule</title>
<path fill="none" stroke="#000000" d="M73,-122.1061C73,-141.3391 73,-169 73,-169 73,-169 241.5184,-169 241.5184,-169"/>
<polygon fill="#000000" stroke="#000000" points="241.5185,-172.5001 251.5184,-169 241.5184,-165.5001 241.5185,-172.5001"/>
</g>
</g>
</svg>
