<?xml version="1.0" encoding="UTF-8" standalone="no"?>
<!DOCTYPE svg PUBLIC "-//W3C//DTD SVG 1.1//EN"
 "http://www.w3.org/Graphics/SVG/1.1/DTD/svg11.dtd">
<!-- Generated by graphviz version 2.40.1 (20161225.0304)
 -->
<!-- Title: dependencies Pages: 1 -->
<svg width="533pt" height="284pt"
 viewBox="0.00 0.00 533.00 284.00" xmlns="http://www.w3.org/2000/svg" xmlns:xlink="http://www.w3.org/1999/xlink">
<g id="graph0" class="graph" transform="scale(1 1) rotate(0) translate(4 280)">
<title>dependencies</title>
<polygon fill="#ffffff" stroke="transparent" points="-4,4 -4,-280 529,-280 529,4 -4,4"/>
<text text-anchor="start" x="241.5091" y="-42.4" font-family="sans-serif" font-weight="bold" font-size="14.00" fill="#000000">Legend</text>
<polygon fill="#ffffb3" stroke="transparent" points="28.5,-10 28.5,-30 48.5,-30 48.5,-10 28.5,-10"/>
<text text-anchor="start" x="52.129" y="-15.4" font-family="sans-serif" font-size="14.00" fill="#000000"> &#160;Declarations</text>
<polygon fill="#8dd3c7" stroke="transparent" points="141.5,-10 141.5,-30 161.5,-30 161.5,-10 141.5,-10"/>
<text text-anchor="start" x="165.2251" y="-15.4" font-family="sans-serif" font-size="14.00" fill="#000000"> &#160;Module</text>
<polygon fill="#80b1d3" stroke="transparent" points="227.5,-10 227.5,-30 247.5,-30 247.5,-10 227.5,-10"/>
<text text-anchor="start" x="251.2812" y="-15.4" font-family="sans-serif" font-size="14.00" fill="#000000"> &#160;Bootstrap</text>
<polygon fill="#fdb462" stroke="transparent" points="324.5,-10 324.5,-30 344.5,-30 344.5,-10 324.5,-10"/>
<text text-anchor="start" x="348.1732" y="-15.4" font-family="sans-serif" font-size="14.00" fill="#000000"> &#160;Providers</text>
<polygon fill="#fb8072" stroke="transparent" points="420.5,-10 420.5,-30 440.5,-30 440.5,-10 420.5,-10"/>
<text text-anchor="start" x="444.2258" y="-15.4" font-family="sans-serif" font-size="14.00" fill="#000000"> &#160;Exports</text>
<g id="clust1" class="cluster">
<title>cluster_SharedModule</title>
<polygon fill="none" stroke="#000000" stroke-dasharray="1,5" points="8,-70 8,-268 517,-268 517,-70 8,-70"/>
</g>
<g id="clust2" class="cluster">
<title>cluster_SharedModule_declarations</title>
<polygon fill="none" stroke="#000000" points="21,-78 21,-130 504,-130 504,-78 21,-78"/>
</g>
<g id="clust7" class="cluster">
<title>cluster_SharedModule_exports</title>
<polygon fill="none" stroke="#000000" points="16,-208 16,-260 509,-260 509,-208 16,-208"/>
</g>
<!-- SidebarComponent -->
<g id="node1" class="node">
<title>SidebarComponent</title>
<polygon fill="#ffffb3" stroke="#000000" points="496.0954,-122 371.9046,-122 371.9046,-86 496.0954,-86 496.0954,-122"/>
<text text-anchor="middle" x="434" y="-99.8" font-family="Times,serif" font-size="14.00" fill="#000000">SidebarComponent</text>
</g>
<!-- SharedModule -->
<g id="node4" class="node">
<title>SharedModule</title>
<polygon fill="#8dd3c7" stroke="#000000" points="332.4231,-187 329.4231,-191 308.4231,-191 305.4231,-187 233.5769,-187 233.5769,-151 332.4231,-151 332.4231,-187"/>
<text text-anchor="middle" x="283" y="-164.8" font-family="Times,serif" font-size="14.00" fill="#000000">SharedModule</text>
</g>
<!-- SidebarComponent&#45;&gt;SharedModule -->
<g id="edge1" class="edge">
<title>SidebarComponent&#45;&gt;SharedModule</title>
<path fill="none" stroke="#000000" d="M455.0992,-122.0225C455.0992,-139.3734 455.0992,-163 455.0992,-163 455.0992,-163 342.3167,-163 342.3167,-163"/>
<polygon fill="#000000" stroke="#000000" points="342.3168,-159.5001 332.3167,-163 342.3167,-166.5001 342.3168,-159.5001"/>
</g>
<!-- StarRatingComponent -->
<g id="node2" class="node">
<title>StarRatingComponent</title>
<polygon fill="#ffffb3" stroke="#000000" points="353.7134,-122 212.2866,-122 212.2866,-86 353.7134,-86 353.7134,-122"/>
<text text-anchor="middle" x="283" y="-99.8" font-family="Times,serif" font-size="14.00" fill="#000000">StarRatingComponent</text>
</g>
<!-- StarRatingComponent&#45;&gt;SharedModule -->
<g id="edge2" class="edge">
<title>StarRatingComponent&#45;&gt;SharedModule</title>
<path fill="none" stroke="#000000" d="M283,-122.1061C283,-122.1061 283,-140.991 283,-140.991"/>
<polygon fill="#000000" stroke="#000000" points="279.5001,-140.9909 283,-150.991 286.5001,-140.991 279.5001,-140.9909"/>
</g>
<!-- YoutubePlayerComponent -->
<g id="node3" class="node">
<title>YoutubePlayerComponent</title>
<polygon fill="#ffffb3" stroke="#000000" points="194.8075,-122 29.1925,-122 29.1925,-86 194.8075,-86 194.8075,-122"/>
<text text-anchor="middle" x="112" y="-99.8" font-family="Times,serif" font-size="14.00" fill="#000000">YoutubePlayerComponent</text>
</g>
<!-- YoutubePlayerComponent&#45;&gt;SharedModule -->
<g id="edge3" class="edge">
<title>YoutubePlayerComponent&#45;&gt;SharedModule</title>
<path fill="none" stroke="#000000" d="M138.0512,-122.0225C138.0512,-139.3734 138.0512,-163 138.0512,-163 138.0512,-163 223.5223,-163 223.5223,-163"/>
<polygon fill="#000000" stroke="#000000" points="223.5223,-166.5001 233.5223,-163 223.5222,-159.5001 223.5223,-166.5001"/>
</g>
<!-- SidebarComponent  -->
<g id="node5" class="node">
<title>SidebarComponent </title>
<polygon fill="#fb8072" stroke="#000000" points="500.596,-252 373.404,-252 373.404,-216 500.596,-216 500.596,-252"/>
<text text-anchor="middle" x="437" y="-229.8" font-family="Times,serif" font-size="14.00" fill="#000000">SidebarComponent </text>
</g>
<!-- SharedModule&#45;&gt;SidebarComponent  -->
<g id="edge4" class="edge">
<title>SharedModule&#45;&gt;SidebarComponent </title>
<path fill="none" stroke="#000000" stroke-dasharray="5,2" d="M332.5825,-175C369.7221,-175 414.1508,-175 414.1508,-175 414.1508,-175 414.1508,-205.9775 414.1508,-205.9775"/>
<polygon fill="#000000" stroke="#000000" points="410.6509,-205.9774 414.1508,-215.9775 417.6509,-205.9775 410.6509,-205.9774"/>
</g>
<!-- StarRatingComponent  -->
<g id="node6" class="node">
<title>StarRatingComponent </title>
<polygon fill="#fb8072" stroke="#000000" points="355.2135,-252 210.7865,-252 210.7865,-216 355.2135,-216 355.2135,-252"/>
<text text-anchor="middle" x="283" y="-229.8" font-family="Times,serif" font-size="14.00" fill="#000000">StarRatingComponent </text>
</g>
<!-- SharedModule&#45;&gt;StarRatingComponent  -->
<g id="edge5" class="edge">
<title>SharedModule&#45;&gt;StarRatingComponent </title>
<path fill="none" stroke="#000000" stroke-dasharray="5,2" d="M283,-187.1061C283,-187.1061 283,-205.991 283,-205.991"/>
<polygon fill="#000000" stroke="#000000" points="279.5001,-205.9909 283,-215.991 286.5001,-205.991 279.5001,-205.9909"/>
</g>
<!-- YoutubePlayerComponent  -->
<g id="node7" class="node">
<title>YoutubePlayerComponent </title>
<polygon fill="#fb8072" stroke="#000000" points="192.3073,-252 23.6927,-252 23.6927,-216 192.3073,-216 192.3073,-252"/>
<text text-anchor="middle" x="108" y="-229.8" font-family="Times,serif" font-size="14.00" fill="#000000">YoutubePlayerComponent </text>
</g>
<!-- SharedModule&#45;&gt;YoutubePlayerComponent  -->
<g id="edge6" class="edge">
<title>SharedModule&#45;&gt;YoutubePlayerComponent </title>
<path fill="none" stroke="#000000" stroke-dasharray="5,2" d="M233.7345,-175C174.7157,-175 83.6988,-175 83.6988,-175 83.6988,-175 83.6988,-205.9775 83.6988,-205.9775"/>
<polygon fill="#000000" stroke="#000000" points="80.1989,-205.9774 83.6988,-215.9775 87.1989,-205.9775 80.1989,-205.9774"/>
</g>
</g>
</svg>
