<?xml version="1.0" encoding="UTF-8" standalone="no"?>
<!DOCTYPE svg PUBLIC "-//W3C//DTD SVG 1.1//EN"
 "http://www.w3.org/Graphics/SVG/1.1/DTD/svg11.dtd">
<!-- Generated by graphviz version 2.40.1 (20161225.0304)
 -->
<!-- Title: dependencies Pages: 1 -->
<svg width="612pt" height="211pt"
 viewBox="0.00 0.00 612.00 211.00" xmlns="http://www.w3.org/2000/svg" xmlns:xlink="http://www.w3.org/1999/xlink">
<g id="graph0" class="graph" transform="scale(1 1) rotate(0) translate(4 207)">
<title>dependencies</title>
<polygon fill="#ffffff" stroke="transparent" points="-4,4 -4,-207 608,-207 608,4 -4,4"/>
<text text-anchor="start" x="281.0091" y="-42.4" font-family="sans-serif" font-weight="bold" font-size="14.00" fill="#000000">Legend</text>
<polygon fill="#ffffb3" stroke="transparent" points="68,-10 68,-30 88,-30 88,-10 68,-10"/>
<text text-anchor="start" x="91.629" y="-15.4" font-family="sans-serif" font-size="14.00" fill="#000000"> &#160;Declarations</text>
<polygon fill="#8dd3c7" stroke="transparent" points="181,-10 181,-30 201,-30 201,-10 181,-10"/>
<text text-anchor="start" x="204.7251" y="-15.4" font-family="sans-serif" font-size="14.00" fill="#000000"> &#160;Module</text>
<polygon fill="#80b1d3" stroke="transparent" points="267,-10 267,-30 287,-30 287,-10 267,-10"/>
<text text-anchor="start" x="290.7812" y="-15.4" font-family="sans-serif" font-size="14.00" fill="#000000"> &#160;Bootstrap</text>
<polygon fill="#fdb462" stroke="transparent" points="364,-10 364,-30 384,-30 384,-10 364,-10"/>
<text text-anchor="start" x="387.6732" y="-15.4" font-family="sans-serif" font-size="14.00" fill="#000000"> &#160;Providers</text>
<polygon fill="#fb8072" stroke="transparent" points="460,-10 460,-30 480,-30 480,-10 460,-10"/>
<text text-anchor="start" x="483.7258" y="-15.4" font-family="sans-serif" font-size="14.00" fill="#000000"> &#160;Exports</text>
<g id="clust1" class="cluster">
<title>cluster_UserModule</title>
<polygon fill="none" stroke="#000000" stroke-dasharray="1,5" points="8,-70 8,-195 596,-195 596,-70 8,-70"/>
</g>
<g id="clust2" class="cluster">
<title>cluster_UserModule_declarations</title>
<polygon fill="none" stroke="#000000" points="288,-78 288,-130 588,-130 588,-78 288,-78"/>
</g>
<g id="clust5" class="cluster">
<title>cluster_UserModule_imports</title>
<polygon fill="none" stroke="#000000" points="16,-78 16,-130 280,-130 280,-78 16,-78"/>
</g>
<!-- ManageUsersComponent -->
<g id="node1" class="node">
<title>ManageUsersComponent</title>
<polygon fill="#ffffb3" stroke="#000000" points="580.2921,-122 421.7079,-122 421.7079,-86 580.2921,-86 580.2921,-122"/>
<text text-anchor="middle" x="501" y="-99.8" font-family="Times,serif" font-size="14.00" fill="#000000">ManageUsersComponent</text>
</g>
<!-- UserModule -->
<g id="node3" class="node">
<title>UserModule</title>
<polygon fill="#8dd3c7" stroke="#000000" points="328.9762,-187 325.9762,-191 304.9762,-191 301.9762,-187 243.0238,-187 243.0238,-151 328.9762,-151 328.9762,-187"/>
<text text-anchor="middle" x="286" y="-164.8" font-family="Times,serif" font-size="14.00" fill="#000000">UserModule</text>
</g>
<!-- ManageUsersComponent&#45;&gt;UserModule -->
<g id="edge1" class="edge">
<title>ManageUsersComponent&#45;&gt;UserModule</title>
<path fill="none" stroke="#000000" d="M501,-122.1061C501,-141.3391 501,-169 501,-169 501,-169 338.9917,-169 338.9917,-169"/>
<polygon fill="#000000" stroke="#000000" points="338.9918,-165.5001 328.9917,-169 338.9917,-172.5001 338.9918,-165.5001"/>
</g>
<!-- UserComponent -->
<g id="node2" class="node">
<title>UserComponent</title>
<polygon fill="#ffffb3" stroke="#000000" points="403.7591,-122 296.2409,-122 296.2409,-86 403.7591,-86 403.7591,-122"/>
<text text-anchor="middle" x="350" y="-99.8" font-family="Times,serif" font-size="14.00" fill="#000000">UserComponent</text>
</g>
<!-- UserComponent&#45;&gt;UserModule -->
<g id="edge2" class="edge">
<title>UserComponent&#45;&gt;UserModule</title>
<path fill="none" stroke="#000000" d="M312.5544,-122.1061C312.5544,-122.1061 312.5544,-140.991 312.5544,-140.991"/>
<polygon fill="#000000" stroke="#000000" points="309.0544,-140.9909 312.5544,-150.991 316.0544,-140.991 309.0544,-140.9909"/>
</g>
<!-- SharedModule -->
<g id="node4" class="node">
<title>SharedModule</title>
<polygon fill="#8dd3c7" stroke="#000000" points="272.4231,-122 269.4231,-126 248.4231,-126 245.4231,-122 173.5769,-122 173.5769,-86 272.4231,-86 272.4231,-122"/>
<text text-anchor="middle" x="223" y="-99.8" font-family="Times,serif" font-size="14.00" fill="#000000">SharedModule</text>
</g>
<!-- SharedModule&#45;&gt;UserModule -->
<g id="edge3" class="edge">
<title>SharedModule&#45;&gt;UserModule</title>
<path fill="none" stroke="#000000" d="M257.6115,-122.1061C257.6115,-122.1061 257.6115,-140.991 257.6115,-140.991"/>
<polygon fill="#000000" stroke="#000000" points="254.1116,-140.9909 257.6115,-150.991 261.1116,-140.991 254.1116,-140.9909"/>
</g>
<!-- UserRoutingModule -->
<g id="node5" class="node">
<title>UserRoutingModule</title>
<polygon fill="#8dd3c7" stroke="#000000" points="155.594,-122 152.594,-126 131.594,-126 128.594,-122 24.406,-122 24.406,-86 155.594,-86 155.594,-122"/>
<text text-anchor="middle" x="90" y="-99.8" font-family="Times,serif" font-size="14.00" fill="#000000">UserRoutingModule</text>
</g>
<!-- UserRoutingModule&#45;&gt;UserModule -->
<g id="edge4" class="edge">
<title>UserRoutingModule&#45;&gt;UserModule</title>
<path fill="none" stroke="#000000" d="M90,-122.1061C90,-141.3391 90,-169 90,-169 90,-169 232.987,-169 232.987,-169"/>
<polygon fill="#000000" stroke="#000000" points="232.987,-172.5001 242.987,-169 232.9869,-165.5001 232.987,-172.5001"/>
</g>
</g>
</svg>
