<?xml version="1.0" encoding="UTF-8" standalone="no"?>
<!DOCTYPE svg PUBLIC "-//W3C//DTD SVG 1.1//EN"
 "http://www.w3.org/Graphics/SVG/1.1/DTD/svg11.dtd">
<!-- Generated by graphviz version 2.40.1 (20161225.0304)
 -->
<!-- Title: dependencies Pages: 1 -->
<svg width="1146pt" height="211pt"
 viewBox="0.00 0.00 1146.00 211.00" xmlns="http://www.w3.org/2000/svg" xmlns:xlink="http://www.w3.org/1999/xlink">
<g id="graph0" class="graph" transform="scale(1 1) rotate(0) translate(4 207)">
<title>dependencies</title>
<polygon fill="#ffffff" stroke="transparent" points="-4,4 -4,-207 1142,-207 1142,4 -4,4"/>
<text text-anchor="start" x="548.0091" y="-42.4" font-family="sans-serif" font-weight="bold" font-size="14.00" fill="#000000">Legend</text>
<polygon fill="#ffffb3" stroke="transparent" points="335,-10 335,-30 355,-30 355,-10 335,-10"/>
<text text-anchor="start" x="358.629" y="-15.4" font-family="sans-serif" font-size="14.00" fill="#000000"> &#160;Declarations</text>
<polygon fill="#8dd3c7" stroke="transparent" points="448,-10 448,-30 468,-30 468,-10 448,-10"/>
<text text-anchor="start" x="471.7251" y="-15.4" font-family="sans-serif" font-size="14.00" fill="#000000"> &#160;Module</text>
<polygon fill="#80b1d3" stroke="transparent" points="534,-10 534,-30 554,-30 554,-10 534,-10"/>
<text text-anchor="start" x="557.7812" y="-15.4" font-family="sans-serif" font-size="14.00" fill="#000000"> &#160;Bootstrap</text>
<polygon fill="#fdb462" stroke="transparent" points="631,-10 631,-30 651,-30 651,-10 631,-10"/>
<text text-anchor="start" x="654.6732" y="-15.4" font-family="sans-serif" font-size="14.00" fill="#000000"> &#160;Providers</text>
<polygon fill="#fb8072" stroke="transparent" points="727,-10 727,-30 747,-30 747,-10 727,-10"/>
<text text-anchor="start" x="750.7258" y="-15.4" font-family="sans-serif" font-size="14.00" fill="#000000"> &#160;Exports</text>
<g id="clust1" class="cluster">
<title>cluster_MoviesModule</title>
<polygon fill="none" stroke="#000000" stroke-dasharray="1,5" points="8,-70 8,-195 1130,-195 1130,-70 8,-70"/>
</g>
<g id="clust2" class="cluster">
<title>cluster_MoviesModule_declarations</title>
<polygon fill="none" stroke="#000000" points="303,-78 303,-130 1122,-130 1122,-78 303,-78"/>
</g>
<g id="clust8" class="cluster">
<title>cluster_MoviesModule_imports</title>
<polygon fill="none" stroke="#000000" points="16,-78 16,-130 295,-130 295,-78 16,-78"/>
</g>
<!-- ActionComponent -->
<g id="node1" class="node">
<title>ActionComponent</title>
<polygon fill="#ffffb3" stroke="#000000" points="1113.9356,-122 994.0644,-122 994.0644,-86 1113.9356,-86 1113.9356,-122"/>
<text text-anchor="middle" x="1054" y="-99.8" font-family="Times,serif" font-size="14.00" fill="#000000">ActionComponent</text>
</g>
<!-- MoviesModule -->
<g id="node6" class="node">
<title>MoviesModule</title>
<polygon fill="#8dd3c7" stroke="#000000" points="644.5452,-187 641.5452,-191 620.5452,-191 617.5452,-187 543.4548,-187 543.4548,-151 644.5452,-151 644.5452,-187"/>
<text text-anchor="middle" x="594" y="-164.8" font-family="Times,serif" font-size="14.00" fill="#000000">MoviesModule</text>
</g>
<!-- ActionComponent&#45;&gt;MoviesModule -->
<g id="edge1" class="edge">
<title>ActionComponent&#45;&gt;MoviesModule</title>
<path fill="none" stroke="#000000" d="M1054,-122.2921C1054,-144.2057 1054,-178 1054,-178 1054,-178 654.9856,-178 654.9856,-178"/>
<polygon fill="#000000" stroke="#000000" points="654.9857,-174.5001 644.9856,-178 654.9856,-181.5001 654.9857,-174.5001"/>
</g>
<!-- ComedyComponent -->
<g id="node2" class="node">
<title>ComedyComponent</title>
<polygon fill="#ffffb3" stroke="#000000" points="976.2744,-122 847.7256,-122 847.7256,-86 976.2744,-86 976.2744,-122"/>
<text text-anchor="middle" x="912" y="-99.8" font-family="Times,serif" font-size="14.00" fill="#000000">ComedyComponent</text>
</g>
<!-- ComedyComponent&#45;&gt;MoviesModule -->
<g id="edge2" class="edge">
<title>ComedyComponent&#45;&gt;MoviesModule</title>
<path fill="none" stroke="#000000" d="M912,-122.1061C912,-141.3391 912,-169 912,-169 912,-169 654.7397,-169 654.7397,-169"/>
<polygon fill="#000000" stroke="#000000" points="654.7397,-165.5001 644.7397,-169 654.7396,-172.5001 654.7397,-165.5001"/>
</g>
<!-- MovieSearchComponent -->
<g id="node3" class="node">
<title>MovieSearchComponent</title>
<polygon fill="#ffffb3" stroke="#000000" points="829.9692,-122 674.0308,-122 674.0308,-86 829.9692,-86 829.9692,-122"/>
<text text-anchor="middle" x="752" y="-99.8" font-family="Times,serif" font-size="14.00" fill="#000000">MovieSearchComponent</text>
</g>
<!-- MovieSearchComponent&#45;&gt;MoviesModule -->
<g id="edge3" class="edge">
<title>MovieSearchComponent&#45;&gt;MoviesModule</title>
<path fill="none" stroke="#000000" d="M752,-122.027C752,-138.3976 752,-160 752,-160 752,-160 654.8619,-160 654.8619,-160"/>
<polygon fill="#000000" stroke="#000000" points="654.8619,-156.5001 644.8619,-160 654.8619,-163.5001 654.8619,-156.5001"/>
</g>
<!-- MoviesComponent -->
<g id="node4" class="node">
<title>MoviesComponent</title>
<polygon fill="#ffffb3" stroke="#000000" points="655.8272,-122 532.1728,-122 532.1728,-86 655.8272,-86 655.8272,-122"/>
<text text-anchor="middle" x="594" y="-99.8" font-family="Times,serif" font-size="14.00" fill="#000000">MoviesComponent</text>
</g>
<!-- MoviesComponent&#45;&gt;MoviesModule -->
<g id="edge4" class="edge">
<title>MoviesComponent&#45;&gt;MoviesModule</title>
<path fill="none" stroke="#000000" d="M594,-122.1061C594,-122.1061 594,-140.991 594,-140.991"/>
<polygon fill="#000000" stroke="#000000" points="590.5001,-140.9909 594,-150.991 597.5001,-140.991 590.5001,-140.9909"/>
</g>
<!-- SelectedSearchMovieComponent -->
<g id="node5" class="node">
<title>SelectedSearchMovieComponent</title>
<polygon fill="#ffffb3" stroke="#000000" points="514.8918,-122 311.1082,-122 311.1082,-86 514.8918,-86 514.8918,-122"/>
<text text-anchor="middle" x="413" y="-99.8" font-family="Times,serif" font-size="14.00" fill="#000000">SelectedSearchMovieComponent</text>
</g>
<!-- SelectedSearchMovieComponent&#45;&gt;MoviesModule -->
<g id="edge5" class="edge">
<title>SelectedSearchMovieComponent&#45;&gt;MoviesModule</title>
<path fill="none" stroke="#000000" d="M413,-122.027C413,-138.3976 413,-160 413,-160 413,-160 533.0997,-160 533.0997,-160"/>
<polygon fill="#000000" stroke="#000000" points="533.0998,-163.5001 543.0997,-160 533.0997,-156.5001 533.0998,-163.5001"/>
</g>
<!-- MoviesRoutingModule -->
<g id="node7" class="node">
<title>MoviesRoutingModule</title>
<polygon fill="#8dd3c7" stroke="#000000" points="287.1624,-122 284.1624,-126 263.1624,-126 260.1624,-122 140.8376,-122 140.8376,-86 287.1624,-86 287.1624,-122"/>
<text text-anchor="middle" x="214" y="-99.8" font-family="Times,serif" font-size="14.00" fill="#000000">MoviesRoutingModule</text>
</g>
<!-- MoviesRoutingModule&#45;&gt;MoviesModule -->
<g id="edge6" class="edge">
<title>MoviesRoutingModule&#45;&gt;MoviesModule</title>
<path fill="none" stroke="#000000" d="M214,-122.1061C214,-141.3391 214,-169 214,-169 214,-169 533.1458,-169 533.1458,-169"/>
<polygon fill="#000000" stroke="#000000" points="533.1458,-172.5001 543.1458,-169 533.1458,-165.5001 533.1458,-172.5001"/>
</g>
<!-- SharedModule -->
<g id="node8" class="node">
<title>SharedModule</title>
<polygon fill="#8dd3c7" stroke="#000000" points="122.4231,-122 119.4231,-126 98.4231,-126 95.4231,-122 23.5769,-122 23.5769,-86 122.4231,-86 122.4231,-122"/>
<text text-anchor="middle" x="73" y="-99.8" font-family="Times,serif" font-size="14.00" fill="#000000">SharedModule</text>
</g>
<!-- SharedModule&#45;&gt;MoviesModule -->
<g id="edge7" class="edge">
<title>SharedModule&#45;&gt;MoviesModule</title>
<path fill="none" stroke="#000000" d="M73,-122.2921C73,-144.2057 73,-178 73,-178 73,-178 533.0957,-178 533.0957,-178"/>
<polygon fill="#000000" stroke="#000000" points="533.0957,-181.5001 543.0957,-178 533.0957,-174.5001 533.0957,-181.5001"/>
</g>
</g>
</svg>
