<?xml version="1.0" encoding="UTF-8" standalone="no"?>
<!DOCTYPE svg PUBLIC "-//W3C//DTD SVG 1.1//EN"
 "http://www.w3.org/Graphics/SVG/1.1/DTD/svg11.dtd">
<!-- Generated by graphviz version 2.40.1 (20161225.0304)
 -->
<!-- Title: dependencies Pages: 1 -->
<svg width="672pt" height="211pt"
 viewBox="0.00 0.00 672.00 211.00" xmlns="http://www.w3.org/2000/svg" xmlns:xlink="http://www.w3.org/1999/xlink">
<g id="graph0" class="graph" transform="scale(1 1) rotate(0) translate(4 207)">
<title>dependencies</title>
<polygon fill="#ffffff" stroke="transparent" points="-4,4 -4,-207 668,-207 668,4 -4,4"/>
<text text-anchor="start" x="311.0091" y="-42.4" font-family="sans-serif" font-weight="bold" font-size="14.00" fill="#000000">Legend</text>
<polygon fill="#ffffb3" stroke="transparent" points="98,-10 98,-30 118,-30 118,-10 98,-10"/>
<text text-anchor="start" x="121.629" y="-15.4" font-family="sans-serif" font-size="14.00" fill="#000000"> &#160;Declarations</text>
<polygon fill="#8dd3c7" stroke="transparent" points="211,-10 211,-30 231,-30 231,-10 211,-10"/>
<text text-anchor="start" x="234.7251" y="-15.4" font-family="sans-serif" font-size="14.00" fill="#000000"> &#160;Module</text>
<polygon fill="#80b1d3" stroke="transparent" points="297,-10 297,-30 317,-30 317,-10 297,-10"/>
<text text-anchor="start" x="320.7812" y="-15.4" font-family="sans-serif" font-size="14.00" fill="#000000"> &#160;Bootstrap</text>
<polygon fill="#fdb462" stroke="transparent" points="394,-10 394,-30 414,-30 414,-10 394,-10"/>
<text text-anchor="start" x="417.6732" y="-15.4" font-family="sans-serif" font-size="14.00" fill="#000000"> &#160;Providers</text>
<polygon fill="#fb8072" stroke="transparent" points="490,-10 490,-30 510,-30 510,-10 490,-10"/>
<text text-anchor="start" x="513.7258" y="-15.4" font-family="sans-serif" font-size="14.00" fill="#000000"> &#160;Exports</text>
<g id="clust1" class="cluster">
<title>cluster_PaymentModule</title>
<polygon fill="none" stroke="#000000" stroke-dasharray="1,5" points="8,-70 8,-195 656,-195 656,-70 8,-70"/>
</g>
<g id="clust2" class="cluster">
<title>cluster_PaymentModule_declarations</title>
<polygon fill="none" stroke="#000000" points="310,-78 310,-130 648,-130 648,-78 310,-78"/>
</g>
<g id="clust5" class="cluster">
<title>cluster_PaymentModule_imports</title>
<polygon fill="none" stroke="#000000" points="16,-78 16,-130 302,-130 302,-78 16,-78"/>
</g>
<!-- MyPaymentInfoComponent -->
<g id="node1" class="node">
<title>MyPaymentInfoComponent</title>
<polygon fill="#ffffb3" stroke="#000000" points="639.5912,-122 466.4088,-122 466.4088,-86 639.5912,-86 639.5912,-122"/>
<text text-anchor="middle" x="553" y="-99.8" font-family="Times,serif" font-size="14.00" fill="#000000">MyPaymentInfoComponent</text>
</g>
<!-- PaymentModule -->
<g id="node3" class="node">
<title>PaymentModule</title>
<polygon fill="#8dd3c7" stroke="#000000" points="354.0438,-187 351.0438,-191 330.0438,-191 327.0438,-187 245.9562,-187 245.9562,-151 354.0438,-151 354.0438,-187"/>
<text text-anchor="middle" x="300" y="-164.8" font-family="Times,serif" font-size="14.00" fill="#000000">PaymentModule</text>
</g>
<!-- MyPaymentInfoComponent&#45;&gt;PaymentModule -->
<g id="edge1" class="edge">
<title>MyPaymentInfoComponent&#45;&gt;PaymentModule</title>
<path fill="none" stroke="#000000" d="M553,-122.1061C553,-141.3391 553,-169 553,-169 553,-169 364.2748,-169 364.2748,-169"/>
<polygon fill="#000000" stroke="#000000" points="364.2749,-165.5001 354.2748,-169 364.2748,-172.5001 364.2749,-165.5001"/>
</g>
<!-- PaymentComponent -->
<g id="node2" class="node">
<title>PaymentComponent</title>
<polygon fill="#ffffb3" stroke="#000000" points="448.3258,-122 317.6742,-122 317.6742,-86 448.3258,-86 448.3258,-122"/>
<text text-anchor="middle" x="383" y="-99.8" font-family="Times,serif" font-size="14.00" fill="#000000">PaymentComponent</text>
</g>
<!-- PaymentComponent&#45;&gt;PaymentModule -->
<g id="edge2" class="edge">
<title>PaymentComponent&#45;&gt;PaymentModule</title>
<path fill="none" stroke="#000000" d="M336.0544,-122.1061C336.0544,-122.1061 336.0544,-140.991 336.0544,-140.991"/>
<polygon fill="#000000" stroke="#000000" points="332.5544,-140.9909 336.0544,-150.991 339.5544,-140.991 332.5544,-140.9909"/>
</g>
<!-- PaymentRoutingModule -->
<g id="node4" class="node">
<title>PaymentRoutingModule</title>
<polygon fill="#8dd3c7" stroke="#000000" points="293.661,-122 290.661,-126 269.661,-126 266.661,-122 140.339,-122 140.339,-86 293.661,-86 293.661,-122"/>
<text text-anchor="middle" x="217" y="-99.8" font-family="Times,serif" font-size="14.00" fill="#000000">PaymentRoutingModule</text>
</g>
<!-- PaymentRoutingModule&#45;&gt;PaymentModule -->
<g id="edge3" class="edge">
<title>PaymentRoutingModule&#45;&gt;PaymentModule</title>
<path fill="none" stroke="#000000" d="M269.7795,-122.1061C269.7795,-122.1061 269.7795,-140.991 269.7795,-140.991"/>
<polygon fill="#000000" stroke="#000000" points="266.2795,-140.9909 269.7795,-150.991 273.2795,-140.991 266.2795,-140.9909"/>
</g>
<!-- SharedModule -->
<g id="node5" class="node">
<title>SharedModule</title>
<polygon fill="#8dd3c7" stroke="#000000" points="122.4231,-122 119.4231,-126 98.4231,-126 95.4231,-122 23.5769,-122 23.5769,-86 122.4231,-86 122.4231,-122"/>
<text text-anchor="middle" x="73" y="-99.8" font-family="Times,serif" font-size="14.00" fill="#000000">SharedModule</text>
</g>
<!-- SharedModule&#45;&gt;PaymentModule -->
<g id="edge4" class="edge">
<title>SharedModule&#45;&gt;PaymentModule</title>
<path fill="none" stroke="#000000" d="M73,-122.1061C73,-141.3391 73,-169 73,-169 73,-169 235.9162,-169 235.9162,-169"/>
<polygon fill="#000000" stroke="#000000" points="235.9163,-172.5001 245.9162,-169 235.9162,-165.5001 235.9163,-172.5001"/>
</g>
</g>
</svg>
