<?xml version="1.0" encoding="UTF-8" standalone="no"?>
<!DOCTYPE svg PUBLIC "-//W3C//DTD SVG 1.1//EN"
 "http://www.w3.org/Graphics/SVG/1.1/DTD/svg11.dtd">
<!-- Generated by graphviz version 2.40.1 (20161225.0304)
 -->
<!-- Title: dependencies Pages: 1 -->
<svg width="710pt" height="211pt"
 viewBox="0.00 0.00 710.00 211.00" xmlns="http://www.w3.org/2000/svg" xmlns:xlink="http://www.w3.org/1999/xlink">
<g id="graph0" class="graph" transform="scale(1 1) rotate(0) translate(4 207)">
<title>dependencies</title>
<polygon fill="#ffffff" stroke="transparent" points="-4,4 -4,-207 706,-207 706,4 -4,4"/>
<text text-anchor="start" x="330.0091" y="-42.4" font-family="sans-serif" font-weight="bold" font-size="14.00" fill="#000000">Legend</text>
<polygon fill="#ffffb3" stroke="transparent" points="117,-10 117,-30 137,-30 137,-10 117,-10"/>
<text text-anchor="start" x="140.629" y="-15.4" font-family="sans-serif" font-size="14.00" fill="#000000"> &#160;Declarations</text>
<polygon fill="#8dd3c7" stroke="transparent" points="230,-10 230,-30 250,-30 250,-10 230,-10"/>
<text text-anchor="start" x="253.7251" y="-15.4" font-family="sans-serif" font-size="14.00" fill="#000000"> &#160;Module</text>
<polygon fill="#80b1d3" stroke="transparent" points="316,-10 316,-30 336,-30 336,-10 316,-10"/>
<text text-anchor="start" x="339.7812" y="-15.4" font-family="sans-serif" font-size="14.00" fill="#000000"> &#160;Bootstrap</text>
<polygon fill="#fdb462" stroke="transparent" points="413,-10 413,-30 433,-30 433,-10 413,-10"/>
<text text-anchor="start" x="436.6732" y="-15.4" font-family="sans-serif" font-size="14.00" fill="#000000"> &#160;Providers</text>
<polygon fill="#fb8072" stroke="transparent" points="509,-10 509,-30 529,-30 529,-10 509,-10"/>
<text text-anchor="start" x="532.7258" y="-15.4" font-family="sans-serif" font-size="14.00" fill="#000000"> &#160;Exports</text>
<g id="clust1" class="cluster">
<title>cluster_MyProfileModule</title>
<polygon fill="none" stroke="#000000" stroke-dasharray="1,5" points="8,-70 8,-195 694,-195 694,-70 8,-70"/>
</g>
<g id="clust2" class="cluster">
<title>cluster_MyProfileModule_declarations</title>
<polygon fill="none" stroke="#000000" points="318,-78 318,-130 686,-130 686,-78 318,-78"/>
</g>
<g id="clust5" class="cluster">
<title>cluster_MyProfileModule_imports</title>
<polygon fill="none" stroke="#000000" points="16,-78 16,-130 310,-130 310,-78 16,-78"/>
</g>
<!-- MyProfileComponent -->
<g id="node1" class="node">
<title>MyProfileComponent</title>
<polygon fill="#ffffb3" stroke="#000000" points="678.3767,-122 539.6233,-122 539.6233,-86 678.3767,-86 678.3767,-122"/>
<text text-anchor="middle" x="609" y="-99.8" font-family="Times,serif" font-size="14.00" fill="#000000">MyProfileComponent</text>
</g>
<!-- MyProfileModule -->
<g id="node3" class="node">
<title>MyProfileModule</title>
<polygon fill="#8dd3c7" stroke="#000000" points="380.594,-187 377.594,-191 356.594,-191 353.594,-187 263.406,-187 263.406,-151 380.594,-151 380.594,-187"/>
<text text-anchor="middle" x="322" y="-164.8" font-family="Times,serif" font-size="14.00" fill="#000000">MyProfileModule</text>
</g>
<!-- MyProfileComponent&#45;&gt;MyProfileModule -->
<g id="edge1" class="edge">
<title>MyProfileComponent&#45;&gt;MyProfileModule</title>
<path fill="none" stroke="#000000" d="M609,-122.1061C609,-141.3391 609,-169 609,-169 609,-169 390.7713,-169 390.7713,-169"/>
<polygon fill="#000000" stroke="#000000" points="390.7713,-165.5001 380.7713,-169 390.7713,-172.5001 390.7713,-165.5001"/>
</g>
<!-- PersonalinformationComponent -->
<g id="node2" class="node">
<title>PersonalinformationComponent</title>
<polygon fill="#ffffb3" stroke="#000000" points="521.6385,-122 326.3615,-122 326.3615,-86 521.6385,-86 521.6385,-122"/>
<text text-anchor="middle" x="424" y="-99.8" font-family="Times,serif" font-size="14.00" fill="#000000">PersonalinformationComponent</text>
</g>
<!-- PersonalinformationComponent&#45;&gt;MyProfileModule -->
<g id="edge2" class="edge">
<title>PersonalinformationComponent&#45;&gt;MyProfileModule</title>
<path fill="none" stroke="#000000" d="M353.364,-122.1061C353.364,-122.1061 353.364,-140.991 353.364,-140.991"/>
<polygon fill="#000000" stroke="#000000" points="349.864,-140.9909 353.364,-150.991 356.864,-140.991 349.864,-140.9909"/>
</g>
<!-- MyProfileRoutingModule -->
<g id="node4" class="node">
<title>MyProfileRoutingModule</title>
<polygon fill="#8dd3c7" stroke="#000000" points="302.2119,-122 299.2119,-126 278.2119,-126 275.2119,-122 139.7881,-122 139.7881,-86 302.2119,-86 302.2119,-122"/>
<text text-anchor="middle" x="221" y="-99.8" font-family="Times,serif" font-size="14.00" fill="#000000">MyProfileRoutingModule</text>
</g>
<!-- MyProfileRoutingModule&#45;&gt;MyProfileModule -->
<g id="edge3" class="edge">
<title>MyProfileRoutingModule&#45;&gt;MyProfileModule</title>
<path fill="none" stroke="#000000" d="M282.7795,-122.1061C282.7795,-122.1061 282.7795,-140.991 282.7795,-140.991"/>
<polygon fill="#000000" stroke="#000000" points="279.2795,-140.9909 282.7795,-150.991 286.2795,-140.991 279.2795,-140.9909"/>
</g>
<!-- SharedModule -->
<g id="node5" class="node">
<title>SharedModule</title>
<polygon fill="#8dd3c7" stroke="#000000" points="122.4231,-122 119.4231,-126 98.4231,-126 95.4231,-122 23.5769,-122 23.5769,-86 122.4231,-86 122.4231,-122"/>
<text text-anchor="middle" x="73" y="-99.8" font-family="Times,serif" font-size="14.00" fill="#000000">SharedModule</text>
</g>
<!-- SharedModule&#45;&gt;MyProfileModule -->
<g id="edge4" class="edge">
<title>SharedModule&#45;&gt;MyProfileModule</title>
<path fill="none" stroke="#000000" d="M73,-122.1061C73,-141.3391 73,-169 73,-169 73,-169 253.3058,-169 253.3058,-169"/>
<polygon fill="#000000" stroke="#000000" points="253.3058,-172.5001 263.3058,-169 253.3057,-165.5001 253.3058,-172.5001"/>
</g>
</g>
</svg>
