<?xml version="1.0" encoding="UTF-8" standalone="no"?>
<!DOCTYPE svg PUBLIC "-//W3C//DTD SVG 1.1//EN"
 "http://www.w3.org/Graphics/SVG/1.1/DTD/svg11.dtd">
<!-- Generated by graphviz version 2.40.1 (20161225.0304)
 -->
<!-- Title: dependencies Pages: 1 -->
<svg width="794pt" height="211pt"
 viewBox="0.00 0.00 794.00 211.00" xmlns="http://www.w3.org/2000/svg" xmlns:xlink="http://www.w3.org/1999/xlink">
<g id="graph0" class="graph" transform="scale(1 1) rotate(0) translate(4 207)">
<title>dependencies</title>
<polygon fill="#ffffff" stroke="transparent" points="-4,4 -4,-207 790,-207 790,4 -4,4"/>
<text text-anchor="start" x="372.0091" y="-42.4" font-family="sans-serif" font-weight="bold" font-size="14.00" fill="#000000">Legend</text>
<polygon fill="#ffffb3" stroke="transparent" points="159,-10 159,-30 179,-30 179,-10 159,-10"/>
<text text-anchor="start" x="182.629" y="-15.4" font-family="sans-serif" font-size="14.00" fill="#000000"> &#160;Declarations</text>
<polygon fill="#8dd3c7" stroke="transparent" points="272,-10 272,-30 292,-30 292,-10 272,-10"/>
<text text-anchor="start" x="295.7251" y="-15.4" font-family="sans-serif" font-size="14.00" fill="#000000"> &#160;Module</text>
<polygon fill="#80b1d3" stroke="transparent" points="358,-10 358,-30 378,-30 378,-10 358,-10"/>
<text text-anchor="start" x="381.7812" y="-15.4" font-family="sans-serif" font-size="14.00" fill="#000000"> &#160;Bootstrap</text>
<polygon fill="#fdb462" stroke="transparent" points="455,-10 455,-30 475,-30 475,-10 455,-10"/>
<text text-anchor="start" x="478.6732" y="-15.4" font-family="sans-serif" font-size="14.00" fill="#000000"> &#160;Providers</text>
<polygon fill="#fb8072" stroke="transparent" points="551,-10 551,-30 571,-30 571,-10 551,-10"/>
<text text-anchor="start" x="574.7258" y="-15.4" font-family="sans-serif" font-size="14.00" fill="#000000"> &#160;Exports</text>
<g id="clust1" class="cluster">
<title>cluster_MyAppModule</title>
<polygon fill="none" stroke="#000000" stroke-dasharray="1,5" points="8,-70 8,-195 778,-195 778,-70 8,-70"/>
</g>
<g id="clust2" class="cluster">
<title>cluster_MyAppModule_declarations</title>
<polygon fill="none" stroke="#000000" points="304,-78 304,-130 770,-130 770,-78 304,-78"/>
</g>
<g id="clust6" class="cluster">
<title>cluster_MyAppModule_imports</title>
<polygon fill="none" stroke="#000000" points="16,-78 16,-130 296,-130 296,-78 16,-78"/>
</g>
<!-- DealPageComponent -->
<g id="node1" class="node">
<title>DealPageComponent</title>
<polygon fill="#ffffb3" stroke="#000000" points="762.4706,-122 627.5294,-122 627.5294,-86 762.4706,-86 762.4706,-122"/>
<text text-anchor="middle" x="695" y="-99.8" font-family="Times,serif" font-size="14.00" fill="#000000">DealPageComponent</text>
</g>
<!-- MyAppModule -->
<g id="node4" class="node">
<title>MyAppModule</title>
<polygon fill="#8dd3c7" stroke="#000000" points="440.601,-187 437.601,-191 416.601,-191 413.601,-187 337.399,-187 337.399,-151 440.601,-151 440.601,-187"/>
<text text-anchor="middle" x="389" y="-164.8" font-family="Times,serif" font-size="14.00" fill="#000000">MyAppModule</text>
</g>
<!-- DealPageComponent&#45;&gt;MyAppModule -->
<g id="edge1" class="edge">
<title>DealPageComponent&#45;&gt;MyAppModule</title>
<path fill="none" stroke="#000000" d="M695,-122.2843C695,-143.3211 695,-175 695,-175 695,-175 450.5627,-175 450.5627,-175"/>
<polygon fill="#000000" stroke="#000000" points="450.5627,-171.5001 440.5627,-175 450.5627,-178.5001 450.5627,-171.5001"/>
</g>
<!-- MyAppComponent -->
<g id="node2" class="node">
<title>MyAppComponent</title>
<polygon fill="#ffffb3" stroke="#000000" points="609.3837,-122 484.6163,-122 484.6163,-86 609.3837,-86 609.3837,-122"/>
<text text-anchor="middle" x="547" y="-99.8" font-family="Times,serif" font-size="14.00" fill="#000000">MyAppComponent</text>
</g>
<!-- MyAppComponent&#45;&gt;MyAppModule -->
<g id="edge2" class="edge">
<title>MyAppComponent&#45;&gt;MyAppModule</title>
<path fill="none" stroke="#000000" d="M547,-122.0225C547,-139.3734 547,-163 547,-163 547,-163 450.7351,-163 450.7351,-163"/>
<polygon fill="#000000" stroke="#000000" points="450.7351,-159.5001 440.7351,-163 450.7351,-166.5001 450.7351,-159.5001"/>
</g>
<!-- SponsorPageComponent -->
<g id="node3" class="node">
<title>SponsorPageComponent</title>
<polygon fill="#ffffb3" stroke="#000000" points="466.4326,-122 311.5674,-122 311.5674,-86 466.4326,-86 466.4326,-122"/>
<text text-anchor="middle" x="389" y="-99.8" font-family="Times,serif" font-size="14.00" fill="#000000">SponsorPageComponent</text>
</g>
<!-- SponsorPageComponent&#45;&gt;MyAppModule -->
<g id="edge3" class="edge">
<title>SponsorPageComponent&#45;&gt;MyAppModule</title>
<path fill="none" stroke="#000000" d="M389,-122.1061C389,-122.1061 389,-140.991 389,-140.991"/>
<polygon fill="#000000" stroke="#000000" points="385.5001,-140.9909 389,-150.991 392.5001,-140.991 385.5001,-140.9909"/>
</g>
<!-- MyAppRoutingModule -->
<g id="node5" class="node">
<title>MyAppRoutingModule</title>
<polygon fill="#8dd3c7" stroke="#000000" points="288.219,-122 285.219,-126 264.219,-126 261.219,-122 139.781,-122 139.781,-86 288.219,-86 288.219,-122"/>
<text text-anchor="middle" x="214" y="-99.8" font-family="Times,serif" font-size="14.00" fill="#000000">MyAppRoutingModule</text>
</g>
<!-- MyAppRoutingModule&#45;&gt;MyAppModule -->
<g id="edge4" class="edge">
<title>MyAppRoutingModule&#45;&gt;MyAppModule</title>
<path fill="none" stroke="#000000" d="M214,-122.0225C214,-139.3734 214,-163 214,-163 214,-163 327.4407,-163 327.4407,-163"/>
<polygon fill="#000000" stroke="#000000" points="327.4408,-166.5001 337.4407,-163 327.4407,-159.5001 327.4408,-166.5001"/>
</g>
<!-- SharedModule -->
<g id="node6" class="node">
<title>SharedModule</title>
<polygon fill="#8dd3c7" stroke="#000000" points="122.4231,-122 119.4231,-126 98.4231,-126 95.4231,-122 23.5769,-122 23.5769,-86 122.4231,-86 122.4231,-122"/>
<text text-anchor="middle" x="73" y="-99.8" font-family="Times,serif" font-size="14.00" fill="#000000">SharedModule</text>
</g>
<!-- SharedModule&#45;&gt;MyAppModule -->
<g id="edge5" class="edge">
<title>SharedModule&#45;&gt;MyAppModule</title>
<path fill="none" stroke="#000000" d="M73,-122.2843C73,-143.3211 73,-175 73,-175 73,-175 327.1729,-175 327.1729,-175"/>
<polygon fill="#000000" stroke="#000000" points="327.1729,-178.5001 337.1729,-175 327.1728,-171.5001 327.1729,-178.5001"/>
</g>
</g>
</svg>
