<?xml version="1.0" encoding="UTF-8" standalone="no"?>
<!DOCTYPE svg PUBLIC "-//W3C//DTD SVG 1.1//EN"
 "http://www.w3.org/Graphics/SVG/1.1/DTD/svg11.dtd">
<!-- Generated by graphviz version 2.40.1 (20161225.0304)
 -->
<!-- Title: dependencies Pages: 1 -->
<svg width="707pt" height="284pt"
 viewBox="0.00 0.00 707.00 284.00" xmlns="http://www.w3.org/2000/svg" xmlns:xlink="http://www.w3.org/1999/xlink">
<g id="graph0" class="graph" transform="scale(1 1) rotate(0) translate(4 280)">
<title>dependencies</title>
<polygon fill="#ffffff" stroke="transparent" points="-4,4 -4,-280 703,-280 703,4 -4,4"/>
<text text-anchor="start" x="328.5091" y="-42.4" font-family="sans-serif" font-weight="bold" font-size="14.00" fill="#000000">Legend</text>
<polygon fill="#ffffb3" stroke="transparent" points="115.5,-10 115.5,-30 135.5,-30 135.5,-10 115.5,-10"/>
<text text-anchor="start" x="139.129" y="-15.4" font-family="sans-serif" font-size="14.00" fill="#000000"> &#160;Declarations</text>
<polygon fill="#8dd3c7" stroke="transparent" points="228.5,-10 228.5,-30 248.5,-30 248.5,-10 228.5,-10"/>
<text text-anchor="start" x="252.2251" y="-15.4" font-family="sans-serif" font-size="14.00" fill="#000000"> &#160;Module</text>
<polygon fill="#80b1d3" stroke="transparent" points="314.5,-10 314.5,-30 334.5,-30 334.5,-10 314.5,-10"/>
<text text-anchor="start" x="338.2812" y="-15.4" font-family="sans-serif" font-size="14.00" fill="#000000"> &#160;Bootstrap</text>
<polygon fill="#fdb462" stroke="transparent" points="411.5,-10 411.5,-30 431.5,-30 431.5,-10 411.5,-10"/>
<text text-anchor="start" x="435.1732" y="-15.4" font-family="sans-serif" font-size="14.00" fill="#000000"> &#160;Providers</text>
<polygon fill="#fb8072" stroke="transparent" points="507.5,-10 507.5,-30 527.5,-30 527.5,-10 507.5,-10"/>
<text text-anchor="start" x="531.2258" y="-15.4" font-family="sans-serif" font-size="14.00" fill="#000000"> &#160;Exports</text>
<g id="clust1" class="cluster">
<title>cluster_AppModule</title>
<polygon fill="none" stroke="#000000" stroke-dasharray="1,5" points="8,-70 8,-268 691,-268 691,-70 8,-70"/>
</g>
<g id="clust2" class="cluster">
<title>cluster_AppModule_declarations</title>
<polygon fill="none" stroke="#000000" points="285,-78 285,-130 683,-130 683,-78 285,-78"/>
</g>
<g id="clust6" class="cluster">
<title>cluster_AppModule_imports</title>
<polygon fill="none" stroke="#000000" points="16,-78 16,-130 277,-130 277,-78 16,-78"/>
</g>
<g id="clust8" class="cluster">
<title>cluster_AppModule_bootstrap</title>
<polygon fill="none" stroke="#000000" points="292,-208 292,-260 416,-260 416,-208 292,-208"/>
</g>
<!-- AppComponent -->
<g id="node1" class="node">
<title>AppComponent</title>
<polygon fill="#ffffb3" stroke="#000000" points="674.9399,-122 569.0601,-122 569.0601,-86 674.9399,-86 674.9399,-122"/>
<text text-anchor="middle" x="622" y="-99.8" font-family="Times,serif" font-size="14.00" fill="#000000">AppComponent</text>
</g>
<!-- AppModule -->
<g id="node4" class="node">
<title>AppModule</title>
<polygon fill="#8dd3c7" stroke="#000000" points="395.6571,-187 392.6571,-191 371.6571,-191 368.6571,-187 312.3429,-187 312.3429,-151 395.6571,-151 395.6571,-187"/>
<text text-anchor="middle" x="354" y="-164.8" font-family="Times,serif" font-size="14.00" fill="#000000">AppModule</text>
</g>
<!-- AppComponent&#45;&gt;AppModule -->
<g id="edge1" class="edge">
<title>AppComponent&#45;&gt;AppModule</title>
<path fill="none" stroke="#000000" d="M622,-122.2843C622,-143.3211 622,-175 622,-175 622,-175 405.875,-175 405.875,-175"/>
<polygon fill="#000000" stroke="#000000" points="405.875,-171.5001 395.875,-175 405.875,-178.5001 405.875,-171.5001"/>
</g>
<!-- FooterComponent -->
<g id="node2" class="node">
<title>FooterComponent</title>
<polygon fill="#ffffb3" stroke="#000000" points="550.8809,-122 433.1191,-122 433.1191,-86 550.8809,-86 550.8809,-122"/>
<text text-anchor="middle" x="492" y="-99.8" font-family="Times,serif" font-size="14.00" fill="#000000">FooterComponent</text>
</g>
<!-- FooterComponent&#45;&gt;AppModule -->
<g id="edge2" class="edge">
<title>FooterComponent&#45;&gt;AppModule</title>
<path fill="none" stroke="#000000" d="M492,-122.0225C492,-139.3734 492,-163 492,-163 492,-163 405.779,-163 405.779,-163"/>
<polygon fill="#000000" stroke="#000000" points="405.7791,-159.5001 395.779,-163 405.779,-166.5001 405.7791,-159.5001"/>
</g>
<!-- HeaderComponent -->
<g id="node3" class="node">
<title>HeaderComponent</title>
<polygon fill="#ffffb3" stroke="#000000" points="414.7437,-122 293.2563,-122 293.2563,-86 414.7437,-86 414.7437,-122"/>
<text text-anchor="middle" x="354" y="-99.8" font-family="Times,serif" font-size="14.00" fill="#000000">HeaderComponent</text>
</g>
<!-- HeaderComponent&#45;&gt;AppModule -->
<g id="edge3" class="edge">
<title>HeaderComponent&#45;&gt;AppModule</title>
<path fill="none" stroke="#000000" d="M354,-122.1061C354,-122.1061 354,-140.991 354,-140.991"/>
<polygon fill="#000000" stroke="#000000" points="350.5001,-140.9909 354,-150.991 357.5001,-140.991 350.5001,-140.9909"/>
</g>
<!-- AppComponent  -->
<g id="node7" class="node">
<title>AppComponent </title>
<polygon fill="#80b1d3" stroke="#000000" points="408.439,-252 299.561,-252 299.561,-216 408.439,-216 408.439,-252"/>
<text text-anchor="middle" x="354" y="-229.8" font-family="Times,serif" font-size="14.00" fill="#000000">AppComponent </text>
</g>
<!-- AppModule&#45;&gt;AppComponent  -->
<g id="edge6" class="edge">
<title>AppModule&#45;&gt;AppComponent </title>
<path fill="none" stroke="#000000" stroke-dasharray="1,5" d="M354,-187.1061C354,-187.1061 354,-205.991 354,-205.991"/>
<polygon fill="#000000" stroke="#000000" points="350.5001,-205.9909 354,-215.991 357.5001,-205.991 350.5001,-205.9909"/>
</g>
<!-- AppRoutingModule -->
<g id="node5" class="node">
<title>AppRoutingModule</title>
<polygon fill="#8dd3c7" stroke="#000000" points="269.2744,-122 266.2744,-126 245.2744,-126 242.2744,-122 140.7256,-122 140.7256,-86 269.2744,-86 269.2744,-122"/>
<text text-anchor="middle" x="205" y="-99.8" font-family="Times,serif" font-size="14.00" fill="#000000">AppRoutingModule</text>
</g>
<!-- AppRoutingModule&#45;&gt;AppModule -->
<g id="edge4" class="edge">
<title>AppRoutingModule&#45;&gt;AppModule</title>
<path fill="none" stroke="#000000" d="M205,-122.0225C205,-139.3734 205,-163 205,-163 205,-163 302.0987,-163 302.0987,-163"/>
<polygon fill="#000000" stroke="#000000" points="302.0987,-166.5001 312.0987,-163 302.0986,-159.5001 302.0987,-166.5001"/>
</g>
<!-- SharedModule -->
<g id="node6" class="node">
<title>SharedModule</title>
<polygon fill="#8dd3c7" stroke="#000000" points="122.4231,-122 119.4231,-126 98.4231,-126 95.4231,-122 23.5769,-122 23.5769,-86 122.4231,-86 122.4231,-122"/>
<text text-anchor="middle" x="73" y="-99.8" font-family="Times,serif" font-size="14.00" fill="#000000">SharedModule</text>
</g>
<!-- SharedModule&#45;&gt;AppModule -->
<g id="edge5" class="edge">
<title>SharedModule&#45;&gt;AppModule</title>
<path fill="none" stroke="#000000" d="M73,-122.2843C73,-143.3211 73,-175 73,-175 73,-175 302.2349,-175 302.2349,-175"/>
<polygon fill="#000000" stroke="#000000" points="302.2349,-178.5001 312.2349,-175 302.2348,-171.5001 302.2349,-178.5001"/>
</g>
</g>
</svg>
