<?xml version="1.0" encoding="UTF-8" standalone="no"?>
<!DOCTYPE svg PUBLIC "-//W3C//DTD SVG 1.1//EN"
 "http://www.w3.org/Graphics/SVG/1.1/DTD/svg11.dtd">
<!-- Generated by graphviz version 2.40.1 (20161225.0304)
 -->
<!-- Title: dependencies Pages: 1 -->
<svg width="711pt" height="211pt"
 viewBox="0.00 0.00 711.00 211.00" xmlns="http://www.w3.org/2000/svg" xmlns:xlink="http://www.w3.org/1999/xlink">
<g id="graph0" class="graph" transform="scale(1 1) rotate(0) translate(4 207)">
<title>dependencies</title>
<polygon fill="#ffffff" stroke="transparent" points="-4,4 -4,-207 707,-207 707,4 -4,4"/>
<text text-anchor="start" x="330.5091" y="-42.4" font-family="sans-serif" font-weight="bold" font-size="14.00" fill="#000000">Legend</text>
<polygon fill="#ffffb3" stroke="transparent" points="117.5,-10 117.5,-30 137.5,-30 137.5,-10 117.5,-10"/>
<text text-anchor="start" x="141.129" y="-15.4" font-family="sans-serif" font-size="14.00" fill="#000000"> &#160;Declarations</text>
<polygon fill="#8dd3c7" stroke="transparent" points="230.5,-10 230.5,-30 250.5,-30 250.5,-10 230.5,-10"/>
<text text-anchor="start" x="254.2251" y="-15.4" font-family="sans-serif" font-size="14.00" fill="#000000"> &#160;Module</text>
<polygon fill="#80b1d3" stroke="transparent" points="316.5,-10 316.5,-30 336.5,-30 336.5,-10 316.5,-10"/>
<text text-anchor="start" x="340.2812" y="-15.4" font-family="sans-serif" font-size="14.00" fill="#000000"> &#160;Bootstrap</text>
<polygon fill="#fdb462" stroke="transparent" points="413.5,-10 413.5,-30 433.5,-30 433.5,-10 413.5,-10"/>
<text text-anchor="start" x="437.1732" y="-15.4" font-family="sans-serif" font-size="14.00" fill="#000000"> &#160;Providers</text>
<polygon fill="#fb8072" stroke="transparent" points="509.5,-10 509.5,-30 529.5,-30 529.5,-10 509.5,-10"/>
<text text-anchor="start" x="533.2258" y="-15.4" font-family="sans-serif" font-size="14.00" fill="#000000"> &#160;Exports</text>
<g id="clust1" class="cluster">
<title>cluster_NotificationModule</title>
<polygon fill="none" stroke="#000000" stroke-dasharray="1,5" points="8,-70 8,-195 695,-195 695,-70 8,-70"/>
</g>
<g id="clust2" class="cluster">
<title>cluster_NotificationModule_declarations</title>
<polygon fill="none" stroke="#000000" points="328,-78 328,-130 687,-130 687,-78 328,-78"/>
</g>
<g id="clust5" class="cluster">
<title>cluster_NotificationModule_imports</title>
<polygon fill="none" stroke="#000000" points="16,-78 16,-130 320,-130 320,-78 16,-78"/>
</g>
<!-- NotificationComponent -->
<g id="node1" class="node">
<title>NotificationComponent</title>
<polygon fill="#ffffb3" stroke="#000000" points="679.4818,-122 530.5182,-122 530.5182,-86 679.4818,-86 679.4818,-122"/>
<text text-anchor="middle" x="605" y="-99.8" font-family="Times,serif" font-size="14.00" fill="#000000">NotificationComponent</text>
</g>
<!-- NotificationModule -->
<g id="node3" class="node">
<title>NotificationModule</title>
<polygon fill="#8dd3c7" stroke="#000000" points="388.6994,-187 385.6994,-191 364.6994,-191 361.6994,-187 261.3006,-187 261.3006,-151 388.6994,-151 388.6994,-187"/>
<text text-anchor="middle" x="325" y="-164.8" font-family="Times,serif" font-size="14.00" fill="#000000">NotificationModule</text>
</g>
<!-- NotificationComponent&#45;&gt;NotificationModule -->
<g id="edge1" class="edge">
<title>NotificationComponent&#45;&gt;NotificationModule</title>
<path fill="none" stroke="#000000" d="M605,-122.1061C605,-141.3391 605,-169 605,-169 605,-169 398.8867,-169 398.8867,-169"/>
<polygon fill="#000000" stroke="#000000" points="398.8867,-165.5001 388.8867,-169 398.8867,-172.5001 398.8867,-165.5001"/>
</g>
<!-- SendNotificationComponent -->
<g id="node2" class="node">
<title>SendNotificationComponent</title>
<polygon fill="#ffffb3" stroke="#000000" points="512.479,-122 335.521,-122 335.521,-86 512.479,-86 512.479,-122"/>
<text text-anchor="middle" x="424" y="-99.8" font-family="Times,serif" font-size="14.00" fill="#000000">SendNotificationComponent</text>
</g>
<!-- SendNotificationComponent&#45;&gt;NotificationModule -->
<g id="edge2" class="edge">
<title>SendNotificationComponent&#45;&gt;NotificationModule</title>
<path fill="none" stroke="#000000" d="M362.0551,-122.1061C362.0551,-122.1061 362.0551,-140.991 362.0551,-140.991"/>
<polygon fill="#000000" stroke="#000000" points="358.5551,-140.9909 362.0551,-150.991 365.5551,-140.991 358.5551,-140.9909"/>
</g>
<!-- NotificationRoutingModule -->
<g id="node4" class="node">
<title>NotificationRoutingModule</title>
<polygon fill="#8dd3c7" stroke="#000000" points="312.3173,-122 309.3173,-126 288.3173,-126 285.3173,-122 139.6827,-122 139.6827,-86 312.3173,-86 312.3173,-122"/>
<text text-anchor="middle" x="226" y="-99.8" font-family="Times,serif" font-size="14.00" fill="#000000">NotificationRoutingModule</text>
</g>
<!-- NotificationRoutingModule&#45;&gt;NotificationModule -->
<g id="edge3" class="edge">
<title>NotificationRoutingModule&#45;&gt;NotificationModule</title>
<path fill="none" stroke="#000000" d="M286.7795,-122.1061C286.7795,-122.1061 286.7795,-140.991 286.7795,-140.991"/>
<polygon fill="#000000" stroke="#000000" points="283.2795,-140.9909 286.7795,-150.991 290.2795,-140.991 283.2795,-140.9909"/>
</g>
<!-- SharedModule -->
<g id="node5" class="node">
<title>SharedModule</title>
<polygon fill="#8dd3c7" stroke="#000000" points="122.4231,-122 119.4231,-126 98.4231,-126 95.4231,-122 23.5769,-122 23.5769,-86 122.4231,-86 122.4231,-122"/>
<text text-anchor="middle" x="73" y="-99.8" font-family="Times,serif" font-size="14.00" fill="#000000">SharedModule</text>
</g>
<!-- SharedModule&#45;&gt;NotificationModule -->
<g id="edge4" class="edge">
<title>SharedModule&#45;&gt;NotificationModule</title>
<path fill="none" stroke="#000000" d="M73,-122.1061C73,-141.3391 73,-169 73,-169 73,-169 251.084,-169 251.084,-169"/>
<polygon fill="#000000" stroke="#000000" points="251.084,-172.5001 261.084,-169 251.084,-165.5001 251.084,-172.5001"/>
</g>
</g>
</svg>
