<?xml version="1.0" encoding="UTF-8" standalone="no"?>
<!DOCTYPE svg PUBLIC "-//W3C//DTD SVG 1.1//EN"
 "http://www.w3.org/Graphics/SVG/1.1/DTD/svg11.dtd">
<!-- Generated by graphviz version 2.40.1 (20161225.0304)
 -->
<!-- Title: dependencies Pages: 1 -->
<svg width="1022pt" height="211pt"
 viewBox="0.00 0.00 1022.00 211.00" xmlns="http://www.w3.org/2000/svg" xmlns:xlink="http://www.w3.org/1999/xlink">
<g id="graph0" class="graph" transform="scale(1 1) rotate(0) translate(4 207)">
<title>dependencies</title>
<polygon fill="#ffffff" stroke="transparent" points="-4,4 -4,-207 1018,-207 1018,4 -4,4"/>
<text text-anchor="start" x="486.0091" y="-42.4" font-family="sans-serif" font-weight="bold" font-size="14.00" fill="#000000">Legend</text>
<polygon fill="#ffffb3" stroke="transparent" points="273,-10 273,-30 293,-30 293,-10 273,-10"/>
<text text-anchor="start" x="296.629" y="-15.4" font-family="sans-serif" font-size="14.00" fill="#000000"> &#160;Declarations</text>
<polygon fill="#8dd3c7" stroke="transparent" points="386,-10 386,-30 406,-30 406,-10 386,-10"/>
<text text-anchor="start" x="409.7251" y="-15.4" font-family="sans-serif" font-size="14.00" fill="#000000"> &#160;Module</text>
<polygon fill="#80b1d3" stroke="transparent" points="472,-10 472,-30 492,-30 492,-10 472,-10"/>
<text text-anchor="start" x="495.7812" y="-15.4" font-family="sans-serif" font-size="14.00" fill="#000000"> &#160;Bootstrap</text>
<polygon fill="#fdb462" stroke="transparent" points="569,-10 569,-30 589,-30 589,-10 569,-10"/>
<text text-anchor="start" x="592.6732" y="-15.4" font-family="sans-serif" font-size="14.00" fill="#000000"> &#160;Providers</text>
<polygon fill="#fb8072" stroke="transparent" points="665,-10 665,-30 685,-30 685,-10 665,-10"/>
<text text-anchor="start" x="688.7258" y="-15.4" font-family="sans-serif" font-size="14.00" fill="#000000"> &#160;Exports</text>
<g id="clust1" class="cluster">
<title>cluster_WishlistModule</title>
<polygon fill="none" stroke="#000000" stroke-dasharray="1,5" points="8,-70 8,-195 1006,-195 1006,-70 8,-70"/>
</g>
<g id="clust2" class="cluster">
<title>cluster_WishlistModule_declarations</title>
<polygon fill="none" stroke="#000000" points="308,-78 308,-130 998,-130 998,-78 308,-78"/>
</g>
<g id="clust7" class="cluster">
<title>cluster_WishlistModule_imports</title>
<polygon fill="none" stroke="#000000" points="16,-78 16,-130 300,-130 300,-78 16,-78"/>
</g>
<!-- SeenWishlistComponent -->
<g id="node1" class="node">
<title>SeenWishlistComponent</title>
<polygon fill="#ffffb3" stroke="#000000" points="989.7105,-122 834.2895,-122 834.2895,-86 989.7105,-86 989.7105,-122"/>
<text text-anchor="middle" x="912" y="-99.8" font-family="Times,serif" font-size="14.00" fill="#000000">SeenWishlistComponent</text>
</g>
<!-- WishlistModule -->
<g id="node5" class="node">
<title>WishlistModule</title>
<polygon fill="#8dd3c7" stroke="#000000" points="517.2162,-187 514.2162,-191 493.2162,-191 490.2162,-187 410.7838,-187 410.7838,-151 517.2162,-151 517.2162,-187"/>
<text text-anchor="middle" x="464" y="-164.8" font-family="Times,serif" font-size="14.00" fill="#000000">WishlistModule</text>
</g>
<!-- SeenWishlistComponent&#45;&gt;WishlistModule -->
<g id="edge1" class="edge">
<title>SeenWishlistComponent&#45;&gt;WishlistModule</title>
<path fill="none" stroke="#000000" d="M912,-122.2843C912,-143.3211 912,-175 912,-175 912,-175 527.1507,-175 527.1507,-175"/>
<polygon fill="#000000" stroke="#000000" points="527.1508,-171.5001 517.1507,-175 527.1507,-178.5001 527.1508,-171.5001"/>
</g>
<!-- SelectedMovieComponent -->
<g id="node2" class="node">
<title>SelectedMovieComponent</title>
<polygon fill="#ffffb3" stroke="#000000" points="816.8047,-122 651.1953,-122 651.1953,-86 816.8047,-86 816.8047,-122"/>
<text text-anchor="middle" x="734" y="-99.8" font-family="Times,serif" font-size="14.00" fill="#000000">SelectedMovieComponent</text>
</g>
<!-- SelectedMovieComponent&#45;&gt;WishlistModule -->
<g id="edge2" class="edge">
<title>SelectedMovieComponent&#45;&gt;WishlistModule</title>
<path fill="none" stroke="#000000" d="M734,-122.0225C734,-139.3734 734,-163 734,-163 734,-163 527.3433,-163 527.3433,-163"/>
<polygon fill="#000000" stroke="#000000" points="527.3433,-159.5001 517.3433,-163 527.3433,-166.5001 527.3433,-159.5001"/>
</g>
<!-- WantedWishlistComponent -->
<g id="node3" class="node">
<title>WantedWishlistComponent</title>
<polygon fill="#ffffb3" stroke="#000000" points="633.5336,-122 462.4664,-122 462.4664,-86 633.5336,-86 633.5336,-122"/>
<text text-anchor="middle" x="548" y="-99.8" font-family="Times,serif" font-size="14.00" fill="#000000">WantedWishlistComponent</text>
</g>
<!-- WantedWishlistComponent&#45;&gt;WishlistModule -->
<g id="edge3" class="edge">
<title>WantedWishlistComponent&#45;&gt;WishlistModule</title>
<path fill="none" stroke="#000000" d="M489.6708,-122.1061C489.6708,-122.1061 489.6708,-140.991 489.6708,-140.991"/>
<polygon fill="#000000" stroke="#000000" points="486.1708,-140.9909 489.6708,-150.991 493.1708,-140.991 486.1708,-140.9909"/>
</g>
<!-- WishlistComponent -->
<g id="node4" class="node">
<title>WishlistComponent</title>
<polygon fill="#ffffb3" stroke="#000000" points="443.9986,-122 316.0014,-122 316.0014,-86 443.9986,-86 443.9986,-122"/>
<text text-anchor="middle" x="380" y="-99.8" font-family="Times,serif" font-size="14.00" fill="#000000">WishlistComponent</text>
</g>
<!-- WishlistComponent&#45;&gt;WishlistModule -->
<g id="edge4" class="edge">
<title>WishlistComponent&#45;&gt;WishlistModule</title>
<path fill="none" stroke="#000000" d="M427.4457,-122.1061C427.4457,-122.1061 427.4457,-140.991 427.4457,-140.991"/>
<polygon fill="#000000" stroke="#000000" points="423.9457,-140.9909 427.4457,-150.991 430.9457,-140.991 423.9457,-140.9909"/>
</g>
<!-- SharedModule -->
<g id="node6" class="node">
<title>SharedModule</title>
<polygon fill="#8dd3c7" stroke="#000000" points="292.4231,-122 289.4231,-126 268.4231,-126 265.4231,-122 193.5769,-122 193.5769,-86 292.4231,-86 292.4231,-122"/>
<text text-anchor="middle" x="243" y="-99.8" font-family="Times,serif" font-size="14.00" fill="#000000">SharedModule</text>
</g>
<!-- SharedModule&#45;&gt;WishlistModule -->
<g id="edge5" class="edge">
<title>SharedModule&#45;&gt;WishlistModule</title>
<path fill="none" stroke="#000000" d="M243,-122.0225C243,-139.3734 243,-163 243,-163 243,-163 400.7838,-163 400.7838,-163"/>
<polygon fill="#000000" stroke="#000000" points="400.7838,-166.5001 410.7838,-163 400.7837,-159.5001 400.7838,-166.5001"/>
</g>
<!-- WishlistRoutingModule -->
<g id="node7" class="node">
<title>WishlistRoutingModule</title>
<polygon fill="#8dd3c7" stroke="#000000" points="175.8342,-122 172.8342,-126 151.8342,-126 148.8342,-122 24.1658,-122 24.1658,-86 175.8342,-86 175.8342,-122"/>
<text text-anchor="middle" x="100" y="-99.8" font-family="Times,serif" font-size="14.00" fill="#000000">WishlistRoutingModule</text>
</g>
<!-- WishlistRoutingModule&#45;&gt;WishlistModule -->
<g id="edge6" class="edge">
<title>WishlistRoutingModule&#45;&gt;WishlistModule</title>
<path fill="none" stroke="#000000" d="M100,-122.2843C100,-143.3211 100,-175 100,-175 100,-175 400.6814,-175 400.6814,-175"/>
<polygon fill="#000000" stroke="#000000" points="400.6815,-178.5001 410.6814,-175 400.6814,-171.5001 400.6815,-178.5001"/>
</g>
</g>
</svg>
