<?xml version="1.0" encoding="UTF-8" standalone="no"?>
<!DOCTYPE svg PUBLIC "-//W3C//DTD SVG 1.1//EN"
 "http://www.w3.org/Graphics/SVG/1.1/DTD/svg11.dtd">
<!-- Generated by graphviz version 2.40.1 (20161225.0304)
 -->
<!-- Title: dependencies Pages: 1 -->
<svg width="809pt" height="211pt"
 viewBox="0.00 0.00 809.00 211.00" xmlns="http://www.w3.org/2000/svg" xmlns:xlink="http://www.w3.org/1999/xlink">
<g id="graph0" class="graph" transform="scale(1 1) rotate(0) translate(4 207)">
<title>dependencies</title>
<polygon fill="#ffffff" stroke="transparent" points="-4,4 -4,-207 805,-207 805,4 -4,4"/>
<text text-anchor="start" x="379.5091" y="-42.4" font-family="sans-serif" font-weight="bold" font-size="14.00" fill="#000000">Legend</text>
<polygon fill="#ffffb3" stroke="transparent" points="166.5,-10 166.5,-30 186.5,-30 186.5,-10 166.5,-10"/>
<text text-anchor="start" x="190.129" y="-15.4" font-family="sans-serif" font-size="14.00" fill="#000000"> &#160;Declarations</text>
<polygon fill="#8dd3c7" stroke="transparent" points="279.5,-10 279.5,-30 299.5,-30 299.5,-10 279.5,-10"/>
<text text-anchor="start" x="303.2251" y="-15.4" font-family="sans-serif" font-size="14.00" fill="#000000"> &#160;Module</text>
<polygon fill="#80b1d3" stroke="transparent" points="365.5,-10 365.5,-30 385.5,-30 385.5,-10 365.5,-10"/>
<text text-anchor="start" x="389.2812" y="-15.4" font-family="sans-serif" font-size="14.00" fill="#000000"> &#160;Bootstrap</text>
<polygon fill="#fdb462" stroke="transparent" points="462.5,-10 462.5,-30 482.5,-30 482.5,-10 462.5,-10"/>
<text text-anchor="start" x="486.1732" y="-15.4" font-family="sans-serif" font-size="14.00" fill="#000000"> &#160;Providers</text>
<polygon fill="#fb8072" stroke="transparent" points="558.5,-10 558.5,-30 578.5,-30 578.5,-10 558.5,-10"/>
<text text-anchor="start" x="582.2258" y="-15.4" font-family="sans-serif" font-size="14.00" fill="#000000"> &#160;Exports</text>
<g id="clust1" class="cluster">
<title>cluster_RatingsModule</title>
<polygon fill="none" stroke="#000000" stroke-dasharray="1,5" points="8,-70 8,-195 793,-195 793,-70 8,-70"/>
</g>
<g id="clust2" class="cluster">
<title>cluster_RatingsModule_declarations</title>
<polygon fill="none" stroke="#000000" points="304,-78 304,-130 785,-130 785,-78 304,-78"/>
</g>
<g id="clust6" class="cluster">
<title>cluster_RatingsModule_imports</title>
<polygon fill="none" stroke="#000000" points="16,-78 16,-130 296,-130 296,-78 16,-78"/>
</g>
<!-- AllRatingsComponent -->
<g id="node1" class="node">
<title>AllRatingsComponent</title>
<polygon fill="#ffffb3" stroke="#000000" points="776.9972,-122 635.0028,-122 635.0028,-86 776.9972,-86 776.9972,-122"/>
<text text-anchor="middle" x="706" y="-99.8" font-family="Times,serif" font-size="14.00" fill="#000000">AllRatingsComponent</text>
</g>
<!-- RatingsModule -->
<g id="node4" class="node">
<title>RatingsModule</title>
<polygon fill="#8dd3c7" stroke="#000000" points="444.3273,-187 441.3273,-191 420.3273,-191 417.3273,-187 341.6727,-187 341.6727,-151 444.3273,-151 444.3273,-187"/>
<text text-anchor="middle" x="393" y="-164.8" font-family="Times,serif" font-size="14.00" fill="#000000">RatingsModule</text>
</g>
<!-- AllRatingsComponent&#45;&gt;RatingsModule -->
<g id="edge1" class="edge">
<title>AllRatingsComponent&#45;&gt;RatingsModule</title>
<path fill="none" stroke="#000000" d="M706,-122.2843C706,-143.3211 706,-175 706,-175 706,-175 454.3351,-175 454.3351,-175"/>
<polygon fill="#000000" stroke="#000000" points="454.3351,-171.5001 444.3351,-175 454.3351,-178.5001 454.3351,-171.5001"/>
</g>
<!-- RatingsComponent -->
<g id="node2" class="node">
<title>RatingsComponent</title>
<polygon fill="#ffffb3" stroke="#000000" points="617.1094,-122 492.8906,-122 492.8906,-86 617.1094,-86 617.1094,-122"/>
<text text-anchor="middle" x="555" y="-99.8" font-family="Times,serif" font-size="14.00" fill="#000000">RatingsComponent</text>
</g>
<!-- RatingsComponent&#45;&gt;RatingsModule -->
<g id="edge2" class="edge">
<title>RatingsComponent&#45;&gt;RatingsModule</title>
<path fill="none" stroke="#000000" d="M555,-122.0225C555,-139.3734 555,-163 555,-163 555,-163 454.2578,-163 454.2578,-163"/>
<polygon fill="#000000" stroke="#000000" points="454.2578,-159.5001 444.2578,-163 454.2578,-166.5001 454.2578,-159.5001"/>
</g>
<!-- RecentRatingsComponent -->
<g id="node3" class="node">
<title>RecentRatingsComponent</title>
<polygon fill="#ffffb3" stroke="#000000" points="474.4804,-122 311.5196,-122 311.5196,-86 474.4804,-86 474.4804,-122"/>
<text text-anchor="middle" x="393" y="-99.8" font-family="Times,serif" font-size="14.00" fill="#000000">RecentRatingsComponent</text>
</g>
<!-- RecentRatingsComponent&#45;&gt;RatingsModule -->
<g id="edge3" class="edge">
<title>RecentRatingsComponent&#45;&gt;RatingsModule</title>
<path fill="none" stroke="#000000" d="M393,-122.1061C393,-122.1061 393,-140.991 393,-140.991"/>
<polygon fill="#000000" stroke="#000000" points="389.5001,-140.9909 393,-150.991 396.5001,-140.991 389.5001,-140.9909"/>
</g>
<!-- RatingsRoutingModule -->
<g id="node5" class="node">
<title>RatingsRoutingModule</title>
<polygon fill="#8dd3c7" stroke="#000000" points="287.9453,-122 284.9453,-126 263.9453,-126 260.9453,-122 140.0547,-122 140.0547,-86 287.9453,-86 287.9453,-122"/>
<text text-anchor="middle" x="214" y="-99.8" font-family="Times,serif" font-size="14.00" fill="#000000">RatingsRoutingModule</text>
</g>
<!-- RatingsRoutingModule&#45;&gt;RatingsModule -->
<g id="edge4" class="edge">
<title>RatingsRoutingModule&#45;&gt;RatingsModule</title>
<path fill="none" stroke="#000000" d="M214,-122.0225C214,-139.3734 214,-163 214,-163 214,-163 331.7058,-163 331.7058,-163"/>
<polygon fill="#000000" stroke="#000000" points="331.7058,-166.5001 341.7058,-163 331.7057,-159.5001 331.7058,-166.5001"/>
</g>
<!-- SharedModule -->
<g id="node6" class="node">
<title>SharedModule</title>
<polygon fill="#8dd3c7" stroke="#000000" points="122.4231,-122 119.4231,-126 98.4231,-126 95.4231,-122 23.5769,-122 23.5769,-86 122.4231,-86 122.4231,-122"/>
<text text-anchor="middle" x="73" y="-99.8" font-family="Times,serif" font-size="14.00" fill="#000000">SharedModule</text>
</g>
<!-- SharedModule&#45;&gt;RatingsModule -->
<g id="edge5" class="edge">
<title>SharedModule&#45;&gt;RatingsModule</title>
<path fill="none" stroke="#000000" d="M73,-122.2843C73,-143.3211 73,-175 73,-175 73,-175 331.5865,-175 331.5865,-175"/>
<polygon fill="#000000" stroke="#000000" points="331.5865,-178.5001 341.5865,-175 331.5864,-171.5001 331.5865,-178.5001"/>
</g>
</g>
</svg>
